<?xml version="1.0" encoding="utf-8"?>
<!-- Generator: Adobe Illustrator 28.0.0, SVG Export Plug-In . SVG Version: 6.00 Build 0)  -->
<svg version="1.1" id="Layer_1" xmlns="http://www.w3.org/2000/svg" xmlns:xlink="http://www.w3.org/1999/xlink" x="0px" y="0px"
	 viewBox="0 0 212 53.7" style="enable-background:new 0 0 212 53.7;" xml:space="preserve">
<style type="text/css">
	.st0{fill:#FFFFFF;}
</style>
<g>
	<path class="st0" d="M60.3,9.4c-5.3,0-9.6,1.9-12.6,5.5c-2.8,3.1-4.2,7.1-4.2,11.8c0,4.5,1.4,8.5,4.2,11.7
		c3.2,3.7,7.5,5.5,12.7,5.5c5.1,0,9.5-1.9,12.7-5.6c2.7-3.3,4.1-7.2,4.1-11.7c0-4.6-1.4-8.5-4.2-11.7C69.9,11.4,65.5,9.4,60.3,9.4z
		 M65.9,32.4c-1.4,1.6-3.2,2.3-5.6,2.3c-2.4,0-4.2-0.7-5.5-2.3c-1.3-1.5-1.9-3.3-1.9-5.7c0-2.4,0.6-4.3,1.9-5.7l0,0
		c1.3-1.5,3.1-2.3,5.5-2.3c2.4,0,4.2,0.7,5.5,2.3c1.3,1.5,1.9,3.4,1.9,5.7C67.8,29.1,67.1,30.9,65.9,32.4z"/>
	<path class="st0" d="M166.3,9.4c-5.3,0-9.6,1.9-12.6,5.5c-2.8,3.1-4.2,7.1-4.2,11.8c0,4.5,1.4,8.5,4.2,11.7
		c3.2,3.7,7.5,5.5,12.7,5.5c5.1,0,9.5-1.9,12.7-5.6c2.7-3.3,4.1-7.2,4.1-11.7c0-4.6-1.4-8.5-4.2-11.7
		C175.9,11.4,171.5,9.4,166.3,9.4z M171.8,32.4c-1.4,1.6-3.2,2.3-5.6,2.3c-2.4,0-4.2-0.7-5.5-2.3c-1.3-1.5-1.9-3.3-1.9-5.7
		c0-2.4,0.6-4.3,1.9-5.7l0,0c1.3-1.5,3.1-2.3,5.5-2.3c2.4,0,4.2,0.7,5.5,2.3c1.3,1.5,1.9,3.4,1.9,5.7
		C173.7,29.1,173.1,30.9,171.8,32.4z"/>
	<path class="st0" d="M127.9,9.4c-1.9,0-3.7,0.3-5.4,0.9v0c-2.6,0.9-4.8,2.4-6.6,4.5c-2.4,2.7-3.8,6.1-4.1,10v28.2h0
		c3.1,1,6.2,1,9.3,0h0V42.7c2,0.8,4.2,1.3,6.7,1.3c5.1,0,9.4-1.9,12.4-5.5c2.6-3.2,3.9-7.1,3.9-11.7c0-4.6-1.3-8.5-3.9-11.7
		C137.1,11.3,133,9.4,127.9,9.4z M132.9,32.6c-1.2,1.4-2.8,2.1-5.1,2.1c-3,0-4.3-1.1-5-1.9c-1.1-1.4-1.7-3.2-1.7-5.6v-0.6
		c0-2.5,0.6-4.3,1.8-5.7l0.1-0.1c0.8-1,2-2.1,4.9-2.1c2.2,0,3.8,0.7,5,2.2c1.2,1.5,1.8,3.4,1.8,5.9
		C134.7,29.2,134.1,31.2,132.9,32.6z"/>
	<path class="st0" d="M27,4.4v12.1l0,0c-6.2,0.8-10.2,0.8-16.5,0l0,0v-16h0C7,0.9,2.7,2.2,0,4.4v38.9h0.1c0,0,0,0,0,0H0
		c3.1,1,7.4,1,10.6,0h0c0,0,0,0,0,0h0V26.1h0c6.2,0.8,10.2,0.8,16.4,0h0v17.2h0c0,0,0,0,0,0h0c3.1,1,7.4,1,10.5,0h0c0,0,0,0,0,0h0
		V0.5h-0.1C34,0.9,29.7,2.2,27,4.4z"/>
	<path class="st0" d="M97.4,19.4h7.8v0c1-3.1,1-6.2,0-9.3v0h-8V0l0,0c-3.5,0.3-6.7,1.6-9.4,3.9v6.2h-6.5v0c-1,3.1-1,6.2,0,9.3v0h6.5
		V31h0c0,0.5,0,0.9,0.1,1.3c0.6,6.1,5.6,10.8,11.9,11h4.8c1-3.1,1-6.4,0-9.4c0,0-1.5,0-1.5,0c-3,0-5.5-2.4-5.6-5.4c0,0,0,0,0,0
		c0,0,0-0.1,0-0.1l0-0.1c0,0,0-0.1,0-0.1c0,0,0-0.1,0-0.1L97.4,19.4z"/>
	<path class="st0" d="M209.1,33.8c-3,0-5.5-2.4-5.6-5.4c0,0,0,0,0,0c0,0,0-0.1,0-0.1l0-0.1c0,0,0-0.1,0-0.1c0,0,0-0.1,0-0.1l0-8.7
		h7.8v0c1-3.1,1-6.2,0-9.3v0h-8V0l0,0c-3.5,0.3-6.7,1.6-9.4,3.9v6.2h-6.5v0c-1,3.1-1,6.2,0,9.3v0h6.5V31h0c0,0.5,0,0.9,0.1,1.3
		c0.6,6.1,5.6,10.8,11.9,11h4.8c1-3.1,1-6.4,0-9.4C210.6,33.9,209.1,33.8,209.1,33.8z"/>
</g>
</svg>
